<svg id="SvgjsSvg1013" width="167.5" height="250" xmlns="http://www.w3.org/2000/svg" version="1.1" xmlns:xlink="http://www.w3.org/1999/xlink" xmlns:svgjs="http://svgjs.com/svgjs"><defs id="SvgjsDefs1014"></defs><g id="SvgjsG1015" transform="matrix(0.9167,0,0,0.9167,12.283841821289059,12.149541925048823)"><svg xmlns="http://www.w3.org/2000/svg" width="288" height="288" viewBox="0 0 32 32"><g transform="translate(434.385 -957.454)" fill="#00bfff" class="color000 svgShape"><path fill-rule="evenodd" d="m -184.77767,845.73998 -12,12 24,0 z m 7,4 0,1.6875 2,1.9707 0,-3.6582 z m -16.99956,11.02223 0,15.55556 8,0 0,-8.9797 4,0 0,8.9797 8,0 0,-15.55556 z" transform="translate(-365.607 690.689) scale(.32143)" fill="#00bfff" class="color000 svgShape"></path><path d="m -425,-62.496094 c 5.18959,0 9.38477,4.186728 9.38477,9.361328 0,1.21014 -0.58616,3.060792 -1.5,5.082032 -0.91385,2.02125 -2.14182,4.229784 -3.3711,6.271484 -2.25544,3.74603 -4.15607,6.373307 -4.51367,6.873047 -0.3576,-0.49974 -2.25823,-3.127017 -4.51367,-6.873047 -1.22928,-2.0417 -2.45725,-4.250234 -3.3711,-6.271484 -0.91384,-2.02124 -1.5,-3.871892 -1.5,-5.082032 0,-5.1746 4.19518,-9.361328 9.38477,-9.361328 z m 0,2 c -4.13621,0 -7.5,3.36379 -7.5,7.5 0,4.13622 3.36379,7.5 7.5,7.5 4.13621,0 7.5,-3.36378 7.5,-7.5 0,-4.13621 -3.36379,-7.5 -7.5,-7.5 z" color="#000" font-family="sans-serif" font-weight="400" overflow="visible" transform="translate(0 1020.362)" style="line-height:normal;text-indent:0;text-align:start;text-decoration-line:none;text-decoration-style:solid;text-decoration-color:#000;text-transform:none;block-progression:tb;isolation:auto;mix-blend-mode:normal" fill="#00bfff" class="color000 svgShape"></path></g></svg></g></svg>